<?xml version="1.0" encoding="UTF-8"?>
<svg width="26px" height="26px" viewBox="0 0 26 26" version="1.1" xmlns="http://www.w3.org/2000/svg" xmlns:xlink="http://www.w3.org/1999/xlink">
    <title>9BDF9C5B-50FD-4759-99C8-E33BDC0ADECD</title>
    <defs>
        <path d="M13,0.25 C20.0416306,0.25 25.75,5.95836944 25.75,13 C25.75,20.0416306 20.0416306,25.75 13,25.75 C5.95836944,25.75 0.25,20.0416306 0.25,13 C0.25,5.95836944 5.95836944,0.25 13,0.25 Z M10.5505833,7.75061027 L6.33175,11.9930002 C5.77783333,12.5498228 5.77783333,13.4512773 6.33175,14.0080999 L10.5505833,18.2490658 C10.82825,18.526765 11.1909167,18.6663267 11.5535833,18.6663267 C11.9148333,18.6663267 12.2775,18.526765 12.5551667,18.2490658 C13.1076667,17.6922432 13.1076667,16.7922128 12.5551667,16.2353902 L10.7531667,14.4239367 L18.6666667,14.4239367 C19.4486667,14.4239367 20.0833333,13.7859405 20.0833333,12.999838 C20.0833333,12.2137355 19.4486667,11.5757393 18.6666667,11.5757393 L10.7531667,11.5757393 L12.5551667,9.76428581 C13.1076667,9.20746322 13.1076667,8.30743286 12.5551667,7.75061027 C12.00125,7.19378769 11.1045,7.19378769 10.5505833,7.75061027 Z" id="path-1"></path>
    </defs>
    <g id="LSP-app" stroke="none" stroke-width="1" fill="none" fill-rule="evenodd">
        <g id="opt_verified" transform="translate(-20.000000, -20.000000)">
            <g id="standard/action/arrow-left-circle" transform="translate(20.000000, 20.000000)">
                <mask id="mask-2" fill="white">
                    <use xlink:href="#path-1"></use>
                </mask>
                <use id="Combined-Shape" fill="#42526E" xlink:href="#path-1"></use>
                <g id="↳-🎨Color" mask="url(#mask-2)" fill="#172B4D">
                    <g transform="translate(-4.000000, -4.000000)" id="N800">
                        <polygon points="0 34 34 34 34 0 0 0"></polygon>
                    </g>
                </g>
            </g>
        </g>
    </g>
</svg>
