<?xml version="1.0" encoding="UTF-8"?>
<svg width="22px" height="24px" viewBox="0 0 22 24" version="1.1" xmlns="http://www.w3.org/2000/svg" xmlns:xlink="http://www.w3.org/1999/xlink">
    <title>7FE9B886-D241-47B6-A25F-C672770D8B04</title>
    <defs>
        <path d="M20.9375,7.5 L1.0625,7.5 C0.753125,7.5 0.5,7.246875 0.5,6.9375 L0.5,5.25 C0.5,4.0078125 1.5078125,3 2.75,3 L5,3 L5,0.5625 C5,0.253125 5.253125,0 5.5625,0 L7.4375,0 C7.746875,0 8,0.253125 8,0.5625 L8,3 L14,3 L14,0.5625 C14,0.253125 14.253125,0 14.5625,0 L16.4375,0 C16.746875,0 17,0.253125 17,0.5625 L17,3 L19.25,3 C20.4921875,3 21.5,4.0078125 21.5,5.25 L21.5,6.9375 C21.5,7.246875 21.246875,7.5 20.9375,7.5 Z M1.0625,9 L20.9375,9 C21.246875,9 21.5,9.253125 21.5,9.5625 L21.5,21.75 C21.5,22.9921875 20.4921875,24 19.25,24 L2.75,24 C1.5078125,24 0.5,22.9921875 0.5,21.75 L0.5,9.5625 C0.5,9.253125 0.753125,9 1.0625,9 Z M6.5,18.5625 C6.5,18.253125 6.246875,18 5.9375,18 L4.0625,18 C3.753125,18 3.5,18.253125 3.5,18.5625 L3.5,20.4375 C3.5,20.746875 3.753125,21 4.0625,21 L5.9375,21 C6.246875,21 6.5,20.746875 6.5,20.4375 L6.5,18.5625 Z M6.5,12.5625 C6.5,12.253125 6.246875,12 5.9375,12 L4.0625,12 C3.753125,12 3.5,12.253125 3.5,12.5625 L3.5,14.4375 C3.5,14.746875 3.753125,15 4.0625,15 L5.9375,15 C6.246875,15 6.5,14.746875 6.5,14.4375 L6.5,12.5625 Z M12.5,18.5625 C12.5,18.253125 12.246875,18 11.9375,18 L10.0625,18 C9.753125,18 9.5,18.253125 9.5,18.5625 L9.5,20.4375 C9.5,20.746875 9.753125,21 10.0625,21 L11.9375,21 C12.246875,21 12.5,20.746875 12.5,20.4375 L12.5,18.5625 Z M12.5,12.5625 C12.5,12.253125 12.246875,12 11.9375,12 L10.0625,12 C9.753125,12 9.5,12.253125 9.5,12.5625 L9.5,14.4375 C9.5,14.746875 9.753125,15 10.0625,15 L11.9375,15 C12.246875,15 12.5,14.746875 12.5,14.4375 L12.5,12.5625 Z M18.5,18.5625 C18.5,18.253125 18.246875,18 17.9375,18 L16.0625,18 C15.753125,18 15.5,18.253125 15.5,18.5625 L15.5,20.4375 C15.5,20.746875 15.753125,21 16.0625,21 L17.9375,21 C18.246875,21 18.5,20.746875 18.5,20.4375 L18.5,18.5625 Z M18.5,12.5625 C18.5,12.253125 18.246875,12 17.9375,12 L16.0625,12 C15.753125,12 15.5,12.253125 15.5,12.5625 L15.5,14.4375 C15.5,14.746875 15.753125,15 16.0625,15 L17.9375,15 C18.246875,15 18.5,14.746875 18.5,14.4375 L18.5,12.5625 Z" id="path-1"></path>
    </defs>
    <g id="Shipper-app" stroke="none" stroke-width="1" fill="none" fill-rule="evenodd">
        <g id="trip_where?" transform="translate(-125.000000, -121.000000)">
            <g id="trip_progress" transform="translate(0.000000, 66.000000)">
                <g id="Group-2" transform="translate(25.000000, 55.000000)">
                    <g id="Group" transform="translate(18.000000, 0.000000)">
                        <g id="Solid/truck" transform="translate(93.000000, 12.000000) scale(-1, 1) translate(-93.000000, -12.000000) translate(82.000000, 0.000000)">
                            <mask id="mask-2" fill="white">
                                <use xlink:href="#path-1"></use>
                            </mask>
                            <use id="Mask" fill="#000000" fill-rule="nonzero" xlink:href="#path-1"></use>
                            <g id="Color" mask="url(#mask-2)" fill="#C1C7D0">
                                <g transform="translate(-1.000000, 0.000000)" id="Turquoise">
                                    <rect x="0" y="0" width="24" height="24"></rect>
                                </g>
                            </g>
                        </g>
                    </g>
                </g>
            </g>
        </g>
    </g>
</svg>