<?xml version="1.0" encoding="UTF-8"?>
<svg width="40px" height="40px" viewBox="0 0 40 40" version="1.1" xmlns="http://www.w3.org/2000/svg" xmlns:xlink="http://www.w3.org/1999/xlink">
    <title>BD0F2A96-FC37-4DF7-9A4C-0886B6150A39</title>
    <g id="UI" stroke="none" stroke-width="1" fill="none" fill-rule="evenodd">
        <g id="choose_persona" transform="translate(-50.000000, -180.000000)">
            <g id="Group-5" transform="translate(30.000000, 170.000000)">
                <g id="Group" transform="translate(20.000000, 10.000000)">
                    <circle id="Oval" stroke="#000066" stroke-width="5" cx="20" cy="20" r="17.5"></circle>
                    <path d="M24.6377248,19.642743 C26.4705503,19.49354 28.0676681,19.7388704 29.4388277,20.3273838 C30.8777632,20.9449872 32.0858565,21.9402136 33.0465857,23.3336915 C34.6809089,25.7041753 35.6,29.3653611 35.6,34.4 C35.6,35.2392089 35.5744635,36.040257 35.5241467,36.8027676 C34.7094858,36.7211471 33.885008,36.5614052 33.0506793,36.3230826 C29.989855,35.4487706 27.6002219,33.7464593 25.8683765,31.2345256 C24.2379758,28.8697311 23.1919098,25.7459624 22.8094728,21.8305743 C22.7468459,21.1894008 22.7057867,20.5656109 22.6860267,19.959676 C23.2949139,19.8056495 23.9451575,19.6991221 24.6377248,19.642743 Z" id="Path" stroke="#000066" stroke-width="4" transform="translate(29.200000, 28.000000) scale(-1, 1) translate(-29.200000, -28.000000) "></path>
                    <path d="" id="Path-3" stroke="#979797"></path>
                    <path d="M35.2,19 C27.0872172,20.2110022 23.1945273,23.8460616 23.5219303,29.9051781 C23.6170757,31.6659959 22.6053438,29.5779391 21.4178106,28 C20.8161739,27.200573 19.8015084,26.6967672 19.2665619,26.6718538 C18.697626,26.6453575 17.7696912,27.0573098 16.978946,28 C16.5702345,28.4872471 16.0843473,29.4872471 15.5212842,31 C12.7560259,23.412631 8.91559778,19.412631 4,19" id="Path-4" fill="#000066"></path>
                    <path d="M4.63772479,19.642743 C6.47055031,19.49354 8.0676681,19.7388704 9.43882771,20.3273838 C10.8777632,20.9449872 12.0858565,21.9402136 13.0465857,23.3336915 C14.6809089,25.7041753 15.6,29.3653611 15.6,34.4 C15.6,35.2392089 15.5744635,36.040257 15.5241467,36.8027676 C14.7094858,36.7211471 13.885008,36.5614052 13.0506793,36.3230826 C9.98985496,35.4487706 7.60022189,33.7464593 5.86837651,31.2345256 C4.23797583,28.8697311 3.19190976,25.7459624 2.80947275,21.8305743 C2.74684589,21.1894008 2.70578665,20.5656109 2.68602675,19.959676 C3.29491387,19.8056495 3.94515748,19.6991221 4.63772479,19.642743 Z" id="Path" stroke="#000066" stroke-width="4"></path>
                </g>
            </g>
        </g>
    </g>
</svg>