<?xml version="1.0" encoding="UTF-8"?>
<svg width="18px" height="16px" viewBox="0 0 18 16" version="1.1" xmlns="http://www.w3.org/2000/svg" xmlns:xlink="http://www.w3.org/1999/xlink">
    <title>1E17B04B-05D5-4B2E-8FFA-63935B2EEA39</title>
    <defs>
        <path d="M17.7665119,13.7302641 C18.3423228,14.728612 17.6195488,15.9765625 16.4694867,15.9765625 L1.49908892,15.9765625 C0.346811959,15.9765625 -0.372624143,14.7266773 0.202063736,13.7302641 L7.68735621,0.74843345 C8.26344789,-0.250382534 9.70634435,-0.248572689 10.2814066,0.74843345 L17.7665119,13.7302641 Z M8.98438139,11.0462952 C8.19185368,11.0462952 7.54937746,11.6889462 7.54937746,12.4816895 C7.54937746,13.2744328 8.19185368,13.9170838 8.98438139,13.9170838 C9.77690911,13.9170838 10.4193853,13.2744328 10.4193853,12.4816895 C10.4193853,11.6889462 9.77690911,11.0462952 8.98438139,11.0462952 Z M7.62196994,5.8868017 L7.85337992,10.1305761 C7.86420484,10.3291598 8.02835682,10.4846192 8.22716725,10.4846192 L9.74159553,10.4846192 C9.94040597,10.4846192 10.1045579,10.3291598 10.1153829,10.1305761 L10.3467928,5.8868017 C10.3584912,5.67230387 10.187757,5.49194346 9.97300551,5.49194346 L7.99572607,5.49194346 C7.78097462,5.49194346 7.61027154,5.67230387 7.62196994,5.8868017 L7.62196994,5.8868017 Z" id="path-1"></path>
    </defs>
    <g id="UI" stroke="none" stroke-width="1" fill="none" fill-rule="evenodd">
        <g id="add_eway_bill_error" transform="translate(-30.000000, -82.000000)">
            <g id="Solid/exclamation-triangle" transform="translate(30.000000, 82.000000)">
                <mask id="mask-2" fill="white">
                    <use xlink:href="#path-1"></use>
                </mask>
                <use id="Mask" fill="#D0021B" fill-rule="nonzero" xlink:href="#path-1"></use>
            </g>
        </g>
    </g>
</svg>