<?xml version="1.0" encoding="UTF-8"?>
<svg width="26px" height="24px" viewBox="0 0 26 24" version="1.1" xmlns="http://www.w3.org/2000/svg" xmlns:xlink="http://www.w3.org/1999/xlink">
    <title>10A2D50E-67BB-4E74-871B-6ABE84505352</title>
    <defs>
        <path d="M24.8117187,11.7067383 L19.90625,9.86845703 L19.90625,4.35869141 C19.90625,3.59697266 19.4339844,2.91650391 18.7179687,2.64736328 L13.6398437,0.743066406 C13.2285156,0.585644531 12.7714844,0.585644531 12.3550781,0.743066406 L7.27695312,2.64736328 C6.5609375,2.91650391 6.08867187,3.59697266 6.08867187,4.35869141 L6.08867187,9.86845703 L1.18320313,11.7067383 C0.472265625,11.9758789 0,12.6563477 0,13.4180664 L0,19.009082 C0,19.699707 0.391015625,20.3344727 1.01054687,20.6442383 L6.08867187,23.1833008 C6.6015625,23.4422852 7.2109375,23.4422852 7.72382812,23.1833008 L13,20.5426758 L18.2761719,23.1833008 C18.7890625,23.4422852 19.3984375,23.4422852 19.9113281,23.1833008 L24.9894531,20.6442383 C25.6089844,20.3344727 26,19.699707 26,19.009082 L26,13.4180664 C26,12.6563477 25.5277344,11.9758789 24.8117187,11.7067383 Z M18.1796875,9.90908203 L13.8632812,11.5290039 L13.8632812,8.06572266 L18.1796875,6.18681641 L18.1796875,9.90908203 Z M7.8203125,4.28759766 L13,2.34775391 L18.1796875,4.28759766 L18.1796875,4.31806641 L13,6.42041016 L7.8203125,4.31806641 L7.8203125,4.28759766 Z M12.0859375,19.0700195 L7.76953125,21.2282227 L7.76953125,17.2114258 L12.0859375,15.2411133 L12.0859375,19.0700195 Z M12.0859375,13.3825195 L6.90625,15.4848633 L1.7265625,13.3825195 L1.7265625,13.3520508 L6.90625,11.412207 L12.0859375,13.3520508 L12.0859375,13.3825195 Z M24.2734375,19.0700195 L19.9570312,21.2282227 L19.9570312,17.2114258 L24.2734375,15.2411133 L24.2734375,19.0700195 Z M24.2734375,13.3825195 L19.09375,15.4848633 L13.9140625,13.3825195 L13.9140625,13.3520508 L19.09375,11.412207 L24.2734375,13.3520508 L24.2734375,13.3825195 Z" id="path-1"></path>
    </defs>
    <g id="Shipper-app" stroke="none" stroke-width="1" fill="none" fill-rule="evenodd">
        <g id="trip_where?" transform="translate(-208.000000, -122.000000)">
            <g id="trip_progress" transform="translate(0.000000, 66.000000)">
                <g id="Group-2" transform="translate(25.000000, 55.000000)">
                    <g id="Group" transform="translate(18.000000, 0.000000)">
                        <g id="Solid/truck-Copy-2" transform="translate(178.000000, 13.000000) scale(-1, 1) translate(-178.000000, -13.000000) translate(165.000000, 1.000000)">
                            <mask id="mask-2" fill="white">
                                <use xlink:href="#path-1"></use>
                            </mask>
                            <use id="Mask" fill="#000000" fill-rule="nonzero" xlink:href="#path-1"></use>
                            <g id="Color" mask="url(#mask-2)" fill="#C1C7D0">
                                <g transform="translate(0.000000, -1.000000)" id="Turquoise">
                                    <rect x="0" y="0" width="26" height="26"></rect>
                                </g>
                            </g>
                        </g>
                    </g>
                </g>
            </g>
        </g>
    </g>
</svg>