<?xml version="1.0" encoding="UTF-8"?>
<svg width="20px" height="20px" viewBox="0 0 20 20" version="1.1" xmlns="http://www.w3.org/2000/svg" xmlns:xlink="http://www.w3.org/1999/xlink">
    <title>F295E833-9F5B-476B-8874-C2C9DA0C9EAE</title>
    <defs>
        <path d="M19.6875168,9.98167969 C19.6973828,15.3191797 15.3445313,19.6837109 10.0070313,19.6874634 C7.70175781,19.6891016 5.58425781,18.8855078 3.92023438,17.5425 C3.48753906,17.1932812 3.45519531,16.5448047 3.84839844,16.1516016 L4.28851563,15.7114844 C4.62480469,15.3751953 5.16167969,15.3383984 5.53425781,15.6339844 C6.76023438,16.6068359 8.31175781,17.1875 10,17.1875 C13.9728516,17.1875 17.1875,13.9722266 17.1875,10 C17.1875,6.02714844 13.9722266,2.8125 10,2.8125 C8.09320313,2.8125 6.36136719,3.55347656 5.07546875,4.76296875 L7.05804688,6.74554687 C7.45179688,7.13929687 7.17292969,7.8125 6.61613281,7.8125 L0.9375,7.8125 C0.592304687,7.8125 0.3125,7.53269531 0.3125,7.1875 L0.3125,1.50886719 C0.3125,0.952070313 0.985703125,0.673203125 1.37945313,1.06691406 L3.30804688,2.99550781 C5.04722656,1.3334375 7.404375,0.3125 10,0.3125 C15.3441406,0.3125 19.6776172,4.63984375 19.6875168,9.98167969 Z M12.620625,13.0591797 L13.0043359,12.5658203 C13.3222266,12.1571094 13.2485937,11.5680859 12.8398828,11.2502344 L11.25,10.0136328 L11.25,5.9375 C11.25,5.41972656 10.8302734,5 10.3125,5 L9.6875,5 C9.16972656,5 8.75,5.41972656 8.75,5.9375 L8.75,11.2363672 L11.3050391,13.2236328 C11.71375,13.5414844 12.3027344,13.4678906 12.620625,13.0591797 L12.620625,13.0591797 Z" id="path-1"></path>
    </defs>
    <g id="Shipper-app" stroke="none" stroke-width="1" fill="none" fill-rule="evenodd">
        <g id="History" transform="translate(-196.000000, -575.000000)">
            <g id="App-bar-/2.-Bottom-/E.-FAB-end-cut/_Light" transform="translate(0.000000, 536.000000)">
                <g id="Group" transform="translate(187.000000, 39.000000)">
                    <g id="Solid/history" transform="translate(9.000000, 0.000000)">
                        <mask id="mask-2" fill="white">
                            <use xlink:href="#path-1"></use>
                        </mask>
                        <use id="Mask" fill="#000000" fill-rule="nonzero" xlink:href="#path-1"></use>
                        <g id="Color/Black" mask="url(#mask-2)" fill="#42526E" fill-rule="evenodd">
                            <rect id="Black" x="0" y="0" width="20" height="20"></rect>
                        </g>
                    </g>
                </g>
            </g>
        </g>
    </g>
</svg>