<?xml version="1.0" encoding="UTF-8"?>
<svg width="22px" height="18px" viewBox="0 0 22 18" version="1.1" xmlns="http://www.w3.org/2000/svg" xmlns:xlink="http://www.w3.org/1999/xlink">
    <title>753EBC62-4EE7-442A-B8BA-3F402954C7DE</title>
    <defs>
        <path d="M18.4866307,11.1189772 L18.4866307,16.4909266 C18.4866307,16.9895095 18.0860363,17.390625 17.5881012,17.390625 L13.2452085,17.390625 C12.9981128,17.390625 12.7959437,17.1881929 12.7959437,16.9407758 L12.7959437,12.7421831 C12.7959437,12.4947661 12.5937745,12.2923339 12.3466789,12.2923339 L9.65109032,12.2923339 C9.4039947,12.2923339 9.20182556,12.4947661 9.20182556,12.7421831 L9.20182556,16.9407758 C9.20182556,17.1881929 8.99965641,17.390625 8.75256079,17.390625 L4.40966804,17.390625 C3.91173293,17.390625 3.51113851,16.9895095 3.51113851,16.4909266 L3.51113851,11.1189772 C3.51113851,10.9840225 3.57104048,10.8565652 3.67586892,10.7703441 L10.7143503,4.96728925 C10.8790807,4.83233448 11.1186886,4.83233448 11.2871628,4.96728925 L18.3256442,10.7703441 C18.4267288,10.8565652 18.4866307,10.9840225 18.4866307,11.1189772 Z M21.6165086,8.83599247 L18.4866307,6.25310825 L18.4866307,1.06109858 C18.4866307,0.813681517 18.2844616,0.611249372 18.037366,0.611249372 L15.9407971,0.611249372 C15.6937014,0.611249372 15.4915323,0.813681517 15.4915323,1.06109858 L15.4915323,3.78268632 L12.1407659,1.01986241 C11.4781004,0.472545865 10.5196689,0.472545865 9.85700334,1.01986241 L0.381260636,8.83599247 C0.19032311,8.9934397 0.164115998,9.2783442 0.321358667,9.46953012 L1.2760463,10.6316406 C1.43328896,10.8228265 1.71782332,10.8490677 1.90876084,10.6916205 L10.7143503,3.43030444 C10.8790807,3.29534967 11.1186886,3.29534967 11.2871628,3.43030444 L20.0927523,10.6916205 C20.2836898,10.8490677 20.5682242,10.8228265 20.7254668,10.6316406 L21.6801545,9.46953012 C21.8373971,9.27459546 21.8074461,8.9934397 21.6165086,8.83599247 L21.6165086,8.83599247 Z" id="path-1"></path>
    </defs>
    <g id="Shipper-app" stroke="none" stroke-width="1" fill="none" fill-rule="evenodd">
        <g id="in_transit_active" transform="translate(-28.000000, -578.000000)">
            <g id="App-bar-/2.-Bottom-/E.-FAB-end-cut/_Light" transform="translate(0.000000, 536.000000)">
                <g id="Group-3" transform="translate(24.000000, 42.000000)">
                    <g id="ðŸ“Icon" transform="translate(4.000000, 0.000000)">
                        <mask id="mask-2" fill="white">
                            <use xlink:href="#path-1"></use>
                        </mask>
                        <use id="Mask" fill="#000000" fill-rule="nonzero" xlink:href="#path-1"></use>
                        <g id="Color" mask="url(#mask-2)" fill="#C1C7D0">
                            <g transform="translate(-1.000000, -3.000000)" id="Turquoise">
                                <rect x="0" y="0" width="24" height="24"></rect>
                            </g>
                        </g>
                    </g>
                </g>
            </g>
        </g>
    </g>
</svg>