<?xml version="1.0" encoding="UTF-8"?>
<svg width="18px" height="17px" viewBox="0 0 18 17" version="1.1" xmlns="http://www.w3.org/2000/svg" xmlns:xlink="http://www.w3.org/1999/xlink">
    <title>0D6D5EBF-63BD-47AF-81AA-E433788D2F85</title>
    <defs>
        <path d="M17.7821369,13.7615141 C18.3579478,14.759862 17.6351738,16.0078125 16.4851117,16.0078125 L1.51471392,16.0078125 C0.362436959,16.0078125 -0.356999143,14.7579273 0.217688736,13.7615141 L7.70298121,0.77968345 C8.27907289,-0.219132534 9.72196935,-0.217322689 10.2970316,0.77968345 L17.7821369,13.7615141 Z M9.00000639,11.0775452 C8.20747868,11.0775452 7.56500246,11.7201962 7.56500246,12.5129395 C7.56500246,13.3056828 8.20747868,13.9483338 9.00000639,13.9483338 C9.79253411,13.9483338 10.4350103,13.3056828 10.4350103,12.5129395 C10.4350103,11.7201962 9.79253411,11.0775452 9.00000639,11.0775452 Z M7.63759494,5.9180517 L7.86900492,10.1618261 C7.87982984,10.3604098 8.04398182,10.5158692 8.24279225,10.5158692 L9.75722053,10.5158692 C9.95603097,10.5158692 10.1201829,10.3604098 10.1310079,10.1618261 L10.3624178,5.9180517 C10.3741162,5.70355387 10.203382,5.52319346 9.98863051,5.52319346 L8.01135107,5.52319346 C7.79659962,5.52319346 7.62589654,5.70355387 7.63759494,5.9180517 L7.63759494,5.9180517 Z" id="path-1"></path>
    </defs>
    <g id="UI" stroke="none" stroke-width="1" fill="none" fill-rule="evenodd">
        <g id="add_eway_bill" transform="translate(-17.000000, -78.000000)">
            <g id="Solid/exclamation-triangle" transform="translate(17.000000, 78.000000)">
                <mask id="mask-2" fill="white">
                    <use xlink:href="#path-1"></use>
                </mask>
                <use id="Mask" fill="#F5A623" fill-rule="nonzero" xlink:href="#path-1"></use>
            </g>
        </g>
    </g>
</svg>