<?xml version="1.0" encoding="UTF-8"?>
<svg width="24px" height="17px" viewBox="0 0 24 17" version="1.1" xmlns="http://www.w3.org/2000/svg" xmlns:xlink="http://www.w3.org/1999/xlink">
    <title>6D07CD5E-3995-4EF0-8FA2-00E14A5CE365</title>
    <defs>
        <path d="M23.6375,13.3349121 L17.9125,0.622338867 C17.75,0.260192871 17.3916667,0.03125 17,0.03125 L12.9958333,0.03125 L13.075,0.813818359 C13.1041667,1.10936279 12.875,1.36328125 12.5791667,1.36328125 L11.4166667,1.36328125 C11.1208333,1.36328125 10.8875,1.1052002 10.9208333,0.813818359 L11,0.03125 L7,0.03125 C6.60833333,0.03125 6.25,0.260192871 6.0875,0.622338867 L0.3625,13.3349121 C0.133333333,13.842749 0,14.4171875 0,15.0166016 C0,15.5702271 0.445833333,16.015625 1,16.015625 L9.9,16.015625 C9.60416667,16.015625 9.37083333,15.7575439 9.40416667,15.4661621 L9.85416667,11.1370605 C9.87916667,10.8831421 10.0958333,10.6875 10.35,10.6875 L13.65,10.6875 C13.9041667,10.6875 14.1208333,10.8789795 14.1458333,11.1370605 L14.5958333,15.4661621 C14.625,15.7617065 14.3958333,16.015625 14.1,16.015625 L23,16.015625 C23.55,16.015625 24,15.5702271 24,15.0166016 C24,14.4380005 23.875,13.863562 23.6375,13.3349121 Z M10.6125,3.81088867 L10.75,2.47885742 C10.775,2.22493896 10.9916667,2.02929688 11.2458333,2.02929688 L12.7541667,2.02929688 C13.0083333,2.02929688 13.225,2.22077637 13.25,2.47885742 L13.3875,3.81088867 C13.4166667,4.10643311 13.1875,4.36035156 12.8916667,4.36035156 L11.1083333,4.36035156 C10.8125,4.36035156 10.5791667,4.10227051 10.6125,3.81088867 L10.6125,3.81088867 Z M13.4083333,9.35546875 L10.5916667,9.35546875 C10.2958333,9.35546875 10.0625,9.0973877 10.0958333,8.80600586 L10.4041667,5.80893555 C10.4291667,5.55501709 10.6458333,5.359375 10.9,5.359375 L13.0958333,5.359375 C13.35,5.359375 13.5666667,5.55085449 13.5916667,5.80893555 L13.9,8.80600586 C13.9375,9.0973877 13.7041667,9.35546875 13.4083333,9.35546875 L13.4083333,9.35546875 Z" id="path-1"></path>
    </defs>
    <g id="Shipper-app" stroke="none" stroke-width="1" fill="none" fill-rule="evenodd">
        <g id="home_upcoming" transform="translate(-108.000000, -579.000000)">
            <g id="App-bar-/2.-Bottom-/E.-FAB-end-cut/_Light" transform="translate(0.000000, 536.000000)">
                <g id="Group-2" transform="translate(93.000000, 43.000000)">
                    <g id="ðŸ“icon" transform="translate(15.000000, 0.000000)">
                        <mask id="mask-2" fill="white">
                            <use xlink:href="#path-1"></use>
                        </mask>
                        <use id="Mask" fill="#000000" fill-rule="nonzero" xlink:href="#path-1"></use>
                        <g id="Color" mask="url(#mask-2)" fill="#C1C7D0">
                            <g transform="translate(0.000000, -4.000000)" id="Turquoise">
                                <rect x="0" y="0" width="24" height="24"></rect>
                            </g>
                        </g>
                    </g>
                </g>
            </g>
        </g>
    </g>
</svg>