<?xml version="1.0" encoding="UTF-8"?>
<svg width="23px" height="26px" viewBox="0 0 23 26" version="1.1" xmlns="http://www.w3.org/2000/svg" xmlns:xlink="http://www.w3.org/1999/xlink">
    <title>7D06DF1C-0210-40C9-9F8E-CA897224E379</title>
    <defs>
        <path d="M18.5625,3 L5.4375,3 C4.91972656,3 4.5,3.41972656 4.5,3.9375 L4.5,4.5625 C4.5,5.08027344 4.91972656,5.5 5.4375,5.5 C5.4375,9.05332031 7.4303125,12.0521094 10.1578906,13 C7.4303125,13.9478906 5.4375,16.9466797 5.4375,20.5 C4.91972656,20.5 4.5,20.9197266 4.5,21.4375 L4.5,22.0625 C4.5,22.5802734 4.91972656,23 5.4375,23 L18.5625,23 C19.0802734,23 19.5,22.5802734 19.5,22.0625 L19.5,21.4375 C19.5,20.9197266 19.0802734,20.5 18.5625,20.5 C18.5625,16.9466797 16.5696875,13.9478906 13.8421094,13 C16.5696875,12.0521094 18.5625,9.05332031 18.5625,5.5 C19.0802734,5.5 19.5,5.08027344 19.5,4.5625 L19.5,3.9375 C19.5,3.41972656 19.0802734,3 18.5625,3 Z M15.6297656,18 L8.3703125,18 C9.03667969,16.1719922 10.4053125,14.875 12,14.875 C13.5945703,14.875 14.9633594,16.1717188 15.6297656,18 Z M15.6305078,8 L8.37023437,8 C8.09328125,7.24015625 7.9375,6.38859375 7.9375,5.5 L16.0625,5.5 C16.0625,6.39082031 15.9067578,7.24167969 15.6305078,8 L15.6305078,8 Z" id="path-1"></path>
    </defs>
    <g id="UI" stroke="none" stroke-width="1" fill="none" fill-rule="evenodd">
        <g id="add_eway_bill_wip" transform="translate(-15.000000, -73.000000)">
            <g id="Solid/hourglass-half" transform="translate(14.148649, 73.000000)">
                <mask id="mask-2" fill="white">
                    <use xlink:href="#path-1"></use>
                </mask>
                <use id="Mask" fill="#F5A623" fill-rule="nonzero" transform="translate(12.000000, 13.000000) rotate(30.000000) translate(-12.000000, -13.000000) " xlink:href="#path-1"></use>
            </g>
        </g>
    </g>
</svg>