<?xml version="1.0" encoding="UTF-8"?>
<svg width="18px" height="24px" viewBox="0 0 18 24" version="1.1" xmlns="http://www.w3.org/2000/svg" xmlns:xlink="http://www.w3.org/1999/xlink">
    <title>CB8CD74D-AA33-4CBB-8E47-004F5B8D7467</title>
    <defs>
        <path d="M8.0750625,23.5157813 C1.26421875,13.6420781 0,12.6287344 0,9 C0,4.02942187 4.02942187,0 9,0 C13.9705781,0 18,4.02942187 18,9 C18,12.6287344 16.7357812,13.6420781 9.9249375,23.5157813 C9.47798438,24.1614375 8.52196875,24.1613906 8.0750625,23.5157813 Z M9,12.75 C11.0710781,12.75 12.75,11.0710781 12.75,9 C12.75,6.92892188 11.0710781,5.25 9,5.25 C6.92892188,5.25 5.25,6.92892188 5.25,9 C5.25,11.0710781 6.92892188,12.75 9,12.75 Z" id="path-1"></path>
    </defs>
    <g id="Shipper-app" stroke="none" stroke-width="1" fill="none" fill-rule="evenodd">
        <g id="trip_where?" transform="translate(-43.000000, -121.000000)">
            <g id="trip_progress" transform="translate(0.000000, 66.000000)">
                <g id="Group-2" transform="translate(25.000000, 55.000000)">
                    <g id="Group" transform="translate(18.000000, 0.000000)">
                        <g id="Solid/truck-Copy" transform="translate(9.000000, 12.000000) scale(-1, 1) translate(-9.000000, -12.000000) ">
                            <mask id="mask-2" fill="white">
                                <use xlink:href="#path-1"></use>
                            </mask>
                            <use id="Mask" fill="#000000" fill-rule="nonzero" xlink:href="#path-1"></use>
                            <g id="Color" mask="url(#mask-2)" fill="#42526E">
                                <g transform="translate(-3.000000, 0.000000)" id="Black">
                                    <rect x="0" y="0" width="24" height="24"></rect>
                                </g>
                            </g>
                        </g>
                    </g>
                </g>
            </g>
        </g>
    </g>
</svg>