<?xml version="1.0" encoding="UTF-8"?>
<svg width="100px" height="60px" viewBox="0 0 100 60" version="1.1" xmlns="http://www.w3.org/2000/svg" xmlns:xlink="http://www.w3.org/1999/xlink">
    <title>96A99AD9-BCA9-48D8-9FE5-260ABD071496</title>
    <g id="UI" stroke="none" stroke-width="1" fill="none" fill-rule="evenodd">
        <g id="splash_screen" transform="translate(-131.000000, -243.000000)" fill="#3399FF" fill-rule="nonzero">
            <g id="Group-3" transform="translate(118.000000, 210.000000)">
                <path d="M99.8769707,46.0434783 C104.023267,46.0434783 107.247013,47.5925226 109.548208,50.6906112 C111.772696,53.6854302 112.922015,57.7646444 112.996165,62.9282539 L113,63.4662886 L113,63.9703844 C113,69.26339 111.823488,73.4904432 109.470465,76.6515438 C107.117441,79.8126444 103.940342,81.3931947 99.9391651,81.3931947 C96.9689814,81.3931947 94.5067343,80.334839 92.552424,78.2181277 L92.3203448,77.9590422 L92.3203448,82.4202899 C92.3203448,87.8495298 87.993674,92.2682216 82.6002497,92.4164481 L82.3203448,92.4202899 L81.8405797,92.4202899 L81.841113,92.3817458 C81.7534778,92.4068467 81.6609175,92.4202899 81.5652174,92.4202899 L42.7101449,92.4202899 C37.9076688,92.4202899 34.0144928,88.5271138 34.0144928,83.7246377 L81.5652174,83.7246377 C81.6609175,83.7246377 81.7534778,83.7380808 81.841113,83.7631818 L81.8405797,47.673598 C81.8405797,47.1607621 82.2266199,46.7380908 82.7239586,46.6803257 L82.8405797,46.673598 L91.9471781,46.673598 L91.9471781,49.8241966 C93.958132,47.3037177 96.6013962,46.0434783 99.8769707,46.0434783 Z M23.5087313,47.4927536 L23.5087313,69.2193903 C23.5087313,72.0833092 24.9119743,73.5152687 27.7184604,73.5152687 C30.1299596,73.5152687 31.8450344,72.6602138 32.863685,70.9501039 L32.863685,70.9501039 L32.863685,48.4927536 C32.863685,47.9404689 33.3114002,47.4927536 33.863685,47.4927536 L33.863685,47.4927536 L43.4347826,47.4927536 L43.4347826,79.9326126 C43.4347826,80.4848974 42.9870674,80.9326126 42.4347826,80.9326126 L42.4347826,80.9326126 L33.5808981,80.9326126 L33.2690663,77.3166575 C31.0446662,80.1393689 28.0406866,81.5507246 24.2571276,81.5507246 C20.5567237,81.5507246 17.7554348,80.4844814 15.8532609,78.3519951 C13.951087,76.2195087 13,73.1547034 13,69.1575791 L13,69.1575791 L13,48.4927536 C13,47.9404689 13.4477153,47.4927536 14,47.4927536 L14,47.4927536 L23.5087313,47.4927536 Z M59.3768116,33 L59.3768116,80.826087 L48.5072464,80.826087 L48.5072464,33 L59.3768116,33 Z M76.0434783,47.4927536 L76.0434783,80.826087 L65.173913,80.826087 L65.173913,48.4927536 C65.173913,47.9799178 65.5599532,47.5572465 66.0572919,47.4994814 L66.173913,47.4927536 L76.0434783,47.4927536 Z M97.2877342,54.7391304 C94.7385866,54.7391304 93.0064735,55.568615 92.0913949,57.227584 L91.9855072,57.4306418 L91.9855072,70.7630122 L92.1012974,70.9755145 C93.0964454,72.7116449 94.8473502,73.5797101 97.354012,73.5797101 C100.838333,73.5797101 102.669047,70.7967203 102.846156,65.2307405 L102.855072,64.8792431 L102.855072,63.7525639 L102.852932,63.4025613 C102.781583,57.6269407 100.926517,54.7391304 97.2877342,54.7391304 Z M70.9710145,33 C72.6863778,33 74.0814023,33.5081301 75.1560877,34.5243902 C76.2307732,35.5406504 76.7681159,36.8441145 76.7681159,38.4347826 C76.7681159,40.0254507 76.2307732,41.3289148 75.1560877,42.345175 C74.0814023,43.3614351 72.6863778,43.8695652 70.9710145,43.8695652 C69.2556511,43.8695652 67.8606267,43.3614351 66.7859413,42.345175 C65.7112558,41.3289148 65.173913,40.0254507 65.173913,38.4347826 C65.173913,36.8441145 65.7112558,35.5406504 66.7859413,34.5243902 C67.8606267,33.5081301 69.2556511,33 70.9710145,33 Z" id="Combined-Shape"></path>
            </g>
        </g>
    </g>
</svg>