<?xml version="1.0" encoding="UTF-8"?>
<svg width="40px" height="40px" viewBox="0 0 40 40" version="1.1" xmlns="http://www.w3.org/2000/svg" xmlns:xlink="http://www.w3.org/1999/xlink">
    <title>51EAD596-6897-4E97-9CD9-5A22822C4F93</title>
    <g id="UI" stroke="none" stroke-width="1" fill="none" fill-rule="evenodd">
        <g id="choose_persona" transform="translate(-50.000000, -270.000000)">
            <g id="Group-6" transform="translate(30.000000, 260.000000)">
                <g id="Group-2" transform="translate(20.000000, 10.000000)">
                    <path d="M32.1448265,8.95283847e-13 C33.7875145,8.95426179e-13 35.1247195,1.32111303 35.1446066,2.9636807 L35.4245676,26.0869565 L36.5217391,26.0869565 L36.5217391,35.5217391 C36.5217391,36.0740239 36.0740239,36.5217391 35.5217391,36.5217391 L4.47826087,36.5217391 C3.92597612,36.5217391 3.47826087,36.0740239 3.47826087,35.5217391 L3.47826087,25.9724069 L4.7428645,25.9724069 L4.83402996,2.98810083 C4.84058327,1.3359046 6.18179713,8.96475531e-13 7.83400636,8.95283847e-13 L32.1448265,8.95283847e-13 Z M6.33848775,27.826087 L6.08695652,27.826087 C5.64365104,27.826087 5.27782437,28.1578132 5.22416645,28.5865758 L5.2173913,28.6956522 L5.2173913,33.7826087 C5.2173913,34.2954445 5.60343149,34.7181159 6.10077018,34.775881 L6.2173913,34.7826087 L8.81674862,34.7826087 C8.97199372,34.7826087 9.12510678,34.7464636 9.26396222,34.6770359 C9.72265653,34.4476887 9.92806284,33.9133795 9.7573129,33.4427129 L9.71117581,33.3353951 L7.23291494,28.3788734 C7.06352293,28.0400893 6.71725981,27.826087 6.33848775,27.826087 Z M33.9130435,27.826087 L33.6615122,27.826087 C33.2827402,27.826087 32.9364771,28.0400893 32.7670851,28.3788734 L30.2888242,33.3353951 C30.0418349,33.8293736 30.2420593,34.4300466 30.7360378,34.6770359 C30.8748932,34.7464636 31.0280063,34.7826087 31.1832514,34.7826087 L33.7826087,34.7826087 C34.3348934,34.7826087 34.7826087,34.3348934 34.7826087,33.7826087 L34.7826087,28.6956522 C34.7826087,28.2154046 34.3932911,27.826087 33.9130435,27.826087 Z M27.826087,30.5470671 L12.173913,30.5470671 L12.173913,32.1280948 C15.6455102,32.7231552 18.2542059,33.0206854 20,33.0206854 C21.7457941,33.0206854 24.3544898,32.7231552 27.826087,32.1280948 L27.826087,32.1280948 L27.826087,30.5470671 Z M29.5652174,26.0869565 L10.4347826,26.0869565 L10.4347826,27.826087 C14.6778459,28.4806534 17.8662517,28.8079367 20,28.8079367 C22.1337483,28.8079367 25.3221541,28.4806534 29.5652174,27.826087 L29.5652174,27.826087 L29.5652174,26.0869565 Z M29.1304348,22.6086957 L10.8695652,22.6086957 C10.6294414,22.6086957 10.4347826,22.8033545 10.4347826,23.0434783 C10.4347826,23.2836021 10.6294414,23.4782609 10.8695652,23.4782609 L10.8695652,23.4782609 L29.1304348,23.4782609 C29.3705586,23.4782609 29.5652174,23.2836021 29.5652174,23.0434783 C29.5652174,22.8033545 29.3705586,22.6086957 29.1304348,22.6086957 L29.1304348,22.6086957 Z M29.1304348,20 L10.8695652,20 C10.6294414,20 10.4347826,20.1946588 10.4347826,20.4347826 C10.4347826,20.6749064 10.6294414,20.8695652 10.8695652,20.8695652 L10.8695652,20.8695652 L29.1304348,20.8695652 C29.3705586,20.8695652 29.5652174,20.6749064 29.5652174,20.4347826 C29.5652174,20.1946588 29.3705586,20 29.1304348,20 L29.1304348,20 Z M29.1304348,17.3913043 L10.8695652,17.3913043 C10.6294414,17.3913043 10.4347826,17.5859632 10.4347826,17.826087 C10.4347826,18.0662108 10.6294414,18.2608696 10.8695652,18.2608696 L10.8695652,18.2608696 L29.1304348,18.2608696 C29.3705586,18.2608696 29.5652174,18.0662108 29.5652174,17.826087 C29.5652174,17.5859632 29.3705586,17.3913043 29.1304348,17.3913043 L29.1304348,17.3913043 Z M30.653068,5.2173913 L9.34693201,5.2173913 C8.89214902,5.2173913 8.49991636,5.5231551 8.38244171,5.95305767 L8.35891998,6.06301442 L7.13689313,13.8839863 C7.12891316,13.9350581 7.12490516,13.9866717 7.12490516,14.0383632 C7.12490516,14.551199 7.51094535,14.9738703 8.00828404,15.0316354 L8.12490516,15.0383632 L31.8750948,15.0383632 C31.9267863,15.0383632 31.9783999,15.0343552 32.0294717,15.0263752 C32.5361597,14.9472052 32.8941684,14.5005422 32.8744634,14.000248 L32.8631069,13.8839863 L31.64108,6.06301442 C31.5650214,5.57623909 31.1457496,5.2173913 30.653068,5.2173913 Z" id="Combined-Shape" fill="#000066"></path>
                    <path d="M6.95652174,36.5217391 L13.9130435,36.5217391 L13.9130435,39 C13.9130435,39.5522847 13.4653282,40 12.9130435,40 L7.95652174,40 C7.40423699,40 6.95652174,39.5522847 6.95652174,39 L6.95652174,36.5217391 L6.95652174,36.5217391 Z" id="Rectangle" fill="#000066"></path>
                    <path d="M26.0869565,36.5217391 L33.0434783,36.5217391 L33.0434783,39 C33.0434783,39.5522847 32.595763,40 32.0434783,40 L27.0869565,40 C26.5346718,40 26.0869565,39.5522847 26.0869565,39 L26.0869565,36.5217391 L26.0869565,36.5217391 Z" id="Rectangle" fill="#000066"></path>
                    <polygon id="Rectangle" fill="#000066" points="0 5.2173913 5.2173913 5.2173913 5.2173913 12.173913 1.73913043 12.173913"></polygon>
                    <polygon id="Rectangle" fill="#000066" transform="translate(37.391304, 8.695652) scale(-1, 1) translate(-37.391304, -8.695652) " points="34.7826087 5.2173913 40 5.2173913 40 12.173913 36.5217391 12.173913"></polygon>
                    <path d="" id="Path-5" stroke="#979797"></path>
                </g>
            </g>
        </g>
    </g>
</svg>