<?xml version="1.0" encoding="UTF-8"?>
<svg width="59px" height="28px" viewBox="0 0 59 28" version="1.1" xmlns="http://www.w3.org/2000/svg" xmlns:xlink="http://www.w3.org/1999/xlink">
    <title>5221B57F-0916-42F9-A0C6-077393111F76</title>
    <g id="UI" stroke="none" stroke-width="1" fill="none" fill-rule="evenodd">
        <g id="trip_how?" transform="translate(-38.000000, -367.000000)">
            <g id="Group" transform="translate(20.000000, 220.000000)">
                <g transform="translate(47.500000, 161.000000) scale(-1, 1) translate(-47.500000, -161.000000) translate(18.000000, 147.000000)">
                    <path d="M11.0002322,26 C11.5509635,26 12,25.5510157 12,25.0001161 C12,24.4492165 11.5509635,24 11.0002322,24 C10.4492686,24 10,24.4492165 10,25.0001161 C10,25.5510157 10.4492686,26 11.0002322,26" id="Fill-27" fill="#ACD071"></path>
                    <path d="M1.99992126,19.2093743 C2.11614173,19.2093743 2.21094488,19.1155196 2.21094488,19.0000782 C2.21094488,18.8846369 2.11614173,18.7906257 1.99992126,18.7906257 C1.88370079,18.7906257 1.78905512,18.8846369 1.78905512,19.0000782 C1.78905512,19.1155196 1.88370079,19.2093743 1.99992126,19.2093743" id="Fill-36" fill="#ACD071"></path>
                    <path d="M4,23.2095307 C4.11622047,23.2095307 4.21086614,23.1155196 4.21086614,23.0000782 C4.21086614,22.8844804 4.11622047,22.7904693 4,22.7904693 C3.88377953,22.7904693 3.78913386,22.8844804 3.78913386,23.0000782 C3.78913386,23.1155196 3.88377953,23.2095307 4,23.2095307" id="Fill-37" fill="#ACD071"></path>
                    <path d="M3.49988001,22 C3.77537797,22 4,21.775618 4,21.50012 C4,21.224862 3.77537797,21 3.49988001,21 C3.22438205,21 3,21.224862 3,21.50012 C3,21.775618 3.22438205,22 3.49988001,22" id="Fill-38" fill="#ACD071"></path>
                    <polygon id="Fill-69" fill="#11192C" points="18 23 23 23 23 13 18 13"></polygon>
                    <path d="M19,16 L2,16 L2,21.9999209 C2,23.1001068 2.90018336,24 4.00021408,24 L16.9997859,24 C18.0999749,24 19,23.1001068 19,21.9999209 L19,16" id="Fill-70" fill="#11192C"></path>
                    <path d="M58,16 L21,16 L21,21.9999209 C21,23.1001068 21.8855675,24 22.9680835,24 L56.0319165,24 C57.1144325,24 58,23.1001068 58,21.9999209 L58,16" id="Fill-71" fill="#11192C"></path>
                    <path d="M19.4505726,0 L7.92643066,0 C7.70737578,0 7.52021893,0.120155225 7.42810522,0.31986827 L1.05110196,14.1387014 C1.01594902,14.2149852 1,14.2871766 1,14.3711543 L1,16.4471877 C1,16.751832 1.24688429,17 1.54942739,17 L19.4505726,17 C19.7531157,17 20,16.751832 20,16.4471877 L20,0.552484858 C20,0.248168013 19.7531157,0 19.4505726,0" id="Fill-72" fill="#3399FF"></path>
                    <path d="M17.6742762,2 L8.70007439,2 C8.57032882,2 8.45946115,2.07018919 8.40490722,2.18706531 L4.03147366,11.5387426 C3.98315903,11.641962 3.9906782,11.7529625 4.05259131,11.8487184 C4.11402448,11.9444742 4.21337343,12.0127578 4.32696079,11.9979895 L17.6742762,10.2596161 C17.8521764,10.2362726 18,10.1144737 18,9.93630117 L18,2.32315611 C18,2.14514235 17.8536163,2 17.6742762,2" id="Fill-74" fill="#11192C"></path>
                    <polyline id="Fill-75" fill="#E0F4FF" points="18 2 18 9.32280333 5 11 9.24974843 2 18 2"></polyline>
                    <path d="M17.5424784,12 L14.4575216,12 C14.2060101,12 14,12.225093 14,12.5000979 C14,12.7751028 14.2060101,13 14.4575216,13 L17.5424784,13 C17.794169,13 18,12.7751028 18,12.5000979 C18,12.225093 17.794169,12 17.5424784,12" id="Fill-78" fill="#FFCC00"></path>
                    <path d="M3.60693735,9.03789759 C3.60693735,9.03789759 3.68303687,8.9190947 3.86717214,9.10218135 C4.05130741,9.28547142 4.93201783,10.3843982 4.93201783,10.3843982 C4.93201783,10.3843982 5.15027926,10.7159884 4.80463783,10.7882059 L4.736568,10.798174 L3.37298154,10.9973316 C3.24341163,11.0166574 3.13008358,10.9287758 3.05982383,10.8061077 C2.9893816,10.6834397 2.98080444,10.5412424 3.03591727,10.4090131 L3.60693735,9.03789759" id="Fill-79" fill="#11192C"></path>
                    <path d="M4.17918314,10.7209223 C4.08014932,10.7209223 4,10.783433 4,10.8604611 C4,10.9373185 4.08014932,11 4.17918314,11 L4.76460255,11 C5.1045235,11 5.41326307,10.8917165 5.63724199,10.717848 L5.64712341,10.7093083 C5.86517347,10.5357814 6,10.2990606 6,10.0387703 L6,9.13970965 C6,9.06251067 5.91985068,9 5.82081686,9 C5.72178305,9 5.64141414,9.06251067 5.64141414,9.13970965 L5.64141414,10.0387703 C5.64141414,10.2230572 5.54633289,10.3909479 5.39240228,10.5140905 L5.3836188,10.5204099 C5.22463768,10.6440649 5.00548968,10.7209223 4.76460255,10.7209223 L4.17918314,10.7209223" id="Fill-80" fill="#11192C"></path>
                    <path d="M5.5,4 L5.5,4 C5.22485123,4 5,4.24715953 5,4.5492607 L5,8.45058366 C5,8.75268482 5.22485123,9 5.5,9 C5.7748654,9 6,8.75268482 6,8.45058366 L6,4.5492607 C6,4.24715953 5.7748654,4 5.5,4" id="Fill-81" fill="#11192C"></path>
                    <path d="M1.72272708,22 L6.53983285,22 C6.94609478,19.1819191 9.57373892,17.0071761 12.755318,17.0071761 C15.936897,17.0071761 18.5647024,19.1819191 18.9709643,22 L19.2772729,22 C19.6745068,22 20,21.701561 20,21.3368351 L20,16.6631649 C20,16.298439 19.6745068,16 19.2772729,16 L1.72272708,16 C1.32533198,16 1,16.298439 1,16.6631649 L1,21.3368351 C1,21.701561 1.32533198,22 1.72272708,22" id="Fill-82" fill="#000066"></path>
                    <path d="M19.6518262,15 L1.34817375,15 C1.15683645,15 1,15.2248238 1,15.4998863 C1,15.7749489 1.15683645,16 1.34817375,16 L19.6518262,16 C19.8433218,16 20,15.7749489 20,15.4998863 C20,15.2248238 19.8433218,15 19.6518262,15" id="Fill-84" fill="#FFFFFE"></path>
                    <path d="M0.965760678,14 L1.03423932,14 C1.56536063,14 2,14.3308702 2,14.7351874 L2,17.2648126 C2,17.6691298 1.56536063,18 1.03423932,18 L0.965760678,18 C0.434639369,18 0,17.6691298 0,17.2648126 L0,14.7351874 C0,14.3308702 0.434639369,14 0.965760678,14" id="Fill-85" fill="#FFCC00"></path>
                    <path d="M20.7095567,22 L34.2333562,22 C34.6321754,19.1819191 37.2096358,17.0071761 40.3306099,17.0071761 C42.9039587,17.0071761 45.1080597,18.4864985 46.0258816,20.5856329 C46.9427547,18.4864985 49.1470139,17.0071761 51.7205208,17.0071761 C54.8414949,17.0071761 57.4187971,19.1819191 57.8176164,22 L58.2906014,22 C58.6807232,22 59,21.701561 59,21.3368351 L59,16.6631649 C59,16.298439 58.6807232,16 58.2906014,16 L20.7095567,16 C20.3191187,16 20,16.298439 20,16.6631649 L20,21.3368351 C20,21.701561 20.3191187,22 20.7095567,22" id="Fill-88" fill="#000066"></path>
                    <path d="M15.5390995,9.57752505 L12.3372247,10 L8,5.64015314 L9.14820881,3.15338363 L15.5390995,9.57752505 Z M10.082677,3 L16.5000697,9.45078257 L17,9.38488909 L17,7.76908006 L12.2556802,3 L10.082677,3 L10.082677,3 Z" id="Fill-91" fill="#FFFFFE"></path>
                    <path d="M52.5000816,28 C55.5297032,28 58,25.5290505 58,22.5000816 C58,19.4707863 55.5297032,17 52.5000816,17 C49.4709495,17 47,19.4707863 47,22.5000816 C47,25.5290505 49.4709495,28 52.5000816,28" id="Fill-108" fill="#11192C"></path>
                    <path d="M52.5,26 C54.4278851,26 56,24.4275553 56,22.4998351 C56,20.5719501 54.4278851,19 52.5,19 C50.5721149,19 49,20.5719501 49,22.4998351 C49,24.4275553 50.5721149,26 52.5,26" id="Fill-109" fill="#FFFFFE"></path>
                    <path d="M52.5,21 C51.6716,21 51,21.6716448 51,22.5 C51,23.3284552 51.6716,24 52.5,24 C53.3284,24 54,23.3284552 54,22.5 C54,21.6716448 53.3284,21 52.5,21" id="Fill-110" fill="#EFF0F2"></path>
                    <path d="M40.5001632,28 C43.529177,28 46,25.5290505 46,22.5000816 C46,19.4707863 43.529177,17 40.5001632,17 C37.4706598,17 35,19.4707863 35,22.5000816 C35,25.5290505 37.4706598,28 40.5001632,28" id="Fill-113" fill="#11192C"></path>
                    <path d="M40.5001649,26 C42.4278851,26 44,24.4275553 44,22.4998351 C44,20.5719501 42.4278851,19 40.5001649,19 C38.5722798,19 37,20.5719501 37,22.4998351 C37,24.4275553 38.5722798,26 40.5001649,26" id="Fill-114" fill="#FFFFFE"></path>
                    <path d="M40.50005,21 C39.6715224,21 39,21.6716448 39,22.5 C39,23.3284552 39.6715224,24 40.50005,24 C41.3283776,24 42,23.3284552 42,22.5 C42,21.6716448 41.3283776,21 40.50005,21" id="Fill-115" fill="#EFF0F2"></path>
                    <path d="M12.5000816,28 C15.5293769,28 18,25.5290505 18,22.5000816 C18,19.4707863 15.5293769,17 12.5000816,17 C9.4707863,17 7,19.4707863 7,22.5000816 C7,25.5290505 9.4707863,28 12.5000816,28" id="Fill-118" fill="#11192C"></path>
                    <path d="M12.5000824,26 C14.4279221,26 16,24.4275553 16,22.4998351 C16,20.5719501 14.4279221,19 12.5000824,19 C10.5722428,19 9,20.5719501 9,22.4998351 C9,24.4275553 10.5722428,26 12.5000824,26" id="Fill-119" fill="#FFFFFE"></path>
                    <path d="M12.5,21 C11.6715448,21 11,21.6716448 11,22.5 C11,23.3284552 11.6715448,24 12.5,24 C13.3285552,24 14,23.3284552 14,22.5 C14,21.6716448 13.3285552,21 12.5,21" id="Fill-120" fill="#EFF0F2"></path>
                </g>
            </g>
        </g>
    </g>
</svg>