<?xml version="1.0" encoding="UTF-8"?>
<svg width="90px" height="61px" viewBox="0 0 90 61" version="1.1" xmlns="http://www.w3.org/2000/svg" xmlns:xlink="http://www.w3.org/1999/xlink">
    <title>3EED8DBD-D5C0-4B00-8F5F-D580A11B7D95</title>
    <defs>
        <path d="M88.640625,50.0059204 L67.171875,2.33377075 C66.5625,0.975723267 65.21875,0.1171875 63.75,0.1171875 L48.734375,0.1171875 L49.03125,3.05181885 C49.140625,4.16011047 48.28125,5.11230469 47.171875,5.11230469 L42.8125,5.11230469 C41.703125,5.11230469 40.828125,4.14450073 40.953125,3.05181885 L41.25,0.1171875 L26.25,0.1171875 C24.78125,0.1171875 23.4375,0.975723267 22.828125,2.33377075 L1.359375,50.0059204 C0.5,51.9103088 0,54.0644531 0,56.3122559 C0,58.3883514 1.671875,60.0585938 3.75,60.0585938 L37.125,60.0585938 C36.015625,60.0585938 35.140625,59.0907898 35.265625,57.9981079 L36.953125,41.7639771 C37.046875,40.8117828 37.859375,40.078125 38.8125,40.078125 L51.1875,40.078125 C52.140625,40.078125 52.953125,40.7961731 53.046875,41.7639771 L54.734375,57.9981079 C54.84375,59.1063995 53.984375,60.0585938 52.875,60.0585938 L86.25,60.0585938 C88.3125,60.0585938 90,58.3883514 90,56.3122559 C90,54.1425018 89.53125,51.9883575 88.640625,50.0059204 Z M39.796875,14.2908325 L40.3125,9.29571533 C40.40625,8.34352112 41.21875,7.60986328 42.171875,7.60986328 L47.828125,7.60986328 C48.78125,7.60986328 49.59375,8.32791138 49.6875,9.29571533 L50.203125,14.2908325 C50.3125,15.3991241 49.453125,16.3513184 48.34375,16.3513184 L41.65625,16.3513184 C40.546875,16.3513184 39.671875,15.3835144 39.796875,14.2908325 L39.796875,14.2908325 Z M50.28125,35.0830078 L39.71875,35.0830078 C38.609375,35.0830078 37.734375,34.1152039 37.859375,33.022522 L39.015625,21.7835083 C39.109375,20.8313141 39.921875,20.0976563 40.875,20.0976563 L49.109375,20.0976563 C50.0625,20.0976563 50.875,20.8157043 50.96875,21.7835083 L52.125,33.022522 C52.265625,34.1152039 51.390625,35.0830078 50.28125,35.0830078 L50.28125,35.0830078 Z" id="path-1"></path>
    </defs>
    <g id="Shipper-app" stroke="none" stroke-width="1" fill="none" fill-rule="evenodd">
        <g id="home_create_trip" transform="translate(-229.000000, -169.000000)">
            <g id="Regular/id-card-Copy" transform="translate(229.000000, 169.000000)">
                <mask id="mask-2" fill="white">
                    <use xlink:href="#path-1"></use>
                </mask>
                <use id="Mask" fill="#000000" fill-rule="nonzero" xlink:href="#path-1"></use>
                <g id="Color" mask="url(#mask-2)" fill="#DFE1E5">
                    <g transform="translate(0.000000, -15.000000)" id="Black">
                        <rect x="0" y="0" width="90" height="90"></rect>
                    </g>
                </g>
            </g>
        </g>
    </g>
</svg>