<?xml version="1.0" encoding="UTF-8"?>
<svg width="40px" height="27px" viewBox="0 0 40 27" version="1.1" xmlns="http://www.w3.org/2000/svg" xmlns:xlink="http://www.w3.org/1999/xlink">
    <title>19FB14B4-C677-4EF7-9101-B18709A4083B</title>
    <g id="UI" stroke="none" stroke-width="1" fill="none" fill-rule="evenodd">
        <g id="shipper_home" transform="translate(-39.000000, -256.000000)" fill="#000066" fill-rule="nonzero">
            <g id="Group" transform="translate(24.000000, 241.000000)">
                <path d="M54.3958333,37.1727702 L44.8541667,15.9851481 C44.5833333,15.3815715 43.9861111,15 43.3333333,15 L36.6597222,15 L36.7916667,16.3042806 C36.8402778,16.7968547 36.4583333,17.2200521 35.9652778,17.2200521 L34.0277778,17.2200521 C33.5347222,17.2200521 33.1458333,16.789917 33.2013889,16.3042806 L33.3333333,15 L26.6666667,15 C26.0138889,15 25.4166667,15.3815715 25.1458333,15.9851481 L15.6041667,37.1727702 C15.2222222,38.019165 15,38.9765625 15,39.9755859 C15,40.8982951 15.7430556,41.640625 16.6666667,41.640625 L31.5,41.640625 C31.0069444,41.640625 30.6180556,41.2104899 30.6736111,40.7248535 L31.4236111,33.5096842 C31.4652778,33.0864868 31.8263889,32.7604167 32.25,32.7604167 L37.75,32.7604167 C38.1736111,32.7604167 38.5347222,33.0795492 38.5763889,33.5096842 L39.3263889,40.7248535 C39.375,41.2174276 38.9930556,41.640625 38.5,41.640625 L53.3333333,41.640625 C54.25,41.640625 55,40.8982951 55,39.9755859 C55,39.0112508 54.7916667,38.0538534 54.3958333,37.1727702 Z M32.6875,21.2993978 L32.9166667,19.0793457 C32.9583333,18.6561483 33.3194444,18.3300781 33.7430556,18.3300781 L36.2569444,18.3300781 C36.6805556,18.3300781 37.0416667,18.6492106 37.0833333,19.0793457 L37.3125,21.2993978 C37.3611111,21.7919718 36.9791667,22.2151693 36.4861111,22.2151693 L33.5138889,22.2151693 C33.0208333,22.2151693 32.6319444,21.7850342 32.6875,21.2993978 L32.6875,21.2993978 Z M37.3472222,30.5403646 L32.6527778,30.5403646 C32.1597222,30.5403646 31.7708333,30.1102295 31.8263889,29.6245931 L32.3402778,24.6294759 C32.3819444,24.2062785 32.7430556,23.8802083 33.1666667,23.8802083 L36.8263889,23.8802083 C37.25,23.8802083 37.6111111,24.1993408 37.6527778,24.6294759 L38.1666667,29.6245931 C38.2291667,30.1102295 37.8402778,30.5403646 37.3472222,30.5403646 L37.3472222,30.5403646 Z" id="Mask"></path>
            </g>
        </g>
    </g>
</svg>