<?xml version="1.0" encoding="UTF-8"?>
<svg width="51px" height="42px" viewBox="0 0 51 42" version="1.1" xmlns="http://www.w3.org/2000/svg" xmlns:xlink="http://www.w3.org/1999/xlink">
    <title>8AB7480F-DD69-4B2F-893D-75CAE05B0ECA</title>
    <defs>
        <path d="M24.5441175,34.2690281 L24.5441175,27.276234 L23.5839704,28.236381 C23.3832351,28.4366016 23.0558822,28.4366016 22.8561763,28.236381 C22.6549263,28.0361604 22.6549263,27.7088075 22.8561763,27.5085869 L24.6918381,25.6729252 C24.6928675,25.6718957 24.6928675,25.6703516 24.6933822,25.6688075 C24.7942645,25.5689546 24.9260292,25.5190281 25.0588234,25.5190281 C25.1911028,25.5190281 25.3228675,25.5689546 25.4232351,25.6688075 C25.4242645,25.6703516 25.4247792,25.671381 25.4247792,25.6724104 L27.2630145,27.510131 C27.3623528,27.6094693 27.4122792,27.7417487 27.4122792,27.8735134 C27.4122792,28.0057928 27.3623528,28.1375575 27.2630145,28.2379252 C27.0627939,28.4381457 26.735441,28.4381457 26.5352204,28.2379252 L25.5724998,27.276234 L25.5724998,34.2690281 C25.5724998,34.5521163 24.5441175,34.5521163 24.5441175,34.2690281 Z" id="path-1"></path>
    </defs>
    <g id="UI" stroke="none" stroke-width="1" fill="none" fill-rule="evenodd">
        <g id="choose_persona" transform="translate(-49.000000, -359.000000)">
            <g id="Group-7" transform="translate(30.000000, 350.000000)">
                <g id="Group-4" transform="translate(20.000000, 10.000000)">
                    <polygon id="Rectangle" stroke="#000066" stroke-width="0.5" points="3.46807085 12.8313979 14.6827795 17.2648191 14.6827795 25.3699764 3.46807085 20.3480301"></polygon>
                    <polygon id="Path-6" stroke="#000066" points="0.467705774 8.0925575 0.467705774 32.7009713 17.3443961 39.6239399 17.3443961 15.2759284"></polygon>
                    <polyline id="Path-7" stroke="#000066" points="4.773839e-13 7.53451641 18.4637754 -3.76169684e-14 36.4304455 7.53451641 36.4304455 32.7009713 19.0652364 39.6239399 19.0652364 15.2665779 36.4304455 7.53451641"></polyline>
                    <polygon id="Rectangle" fill="#000066" points="17 14.6454363 18.2557145 15.0869799 18.735176 14.8634334 19.0056763 40.1747742 18.1898193 40.5168915 17 40.029129"></polygon>
                    <line x1="10.2317524" y1="3.44962341" x2="28.141628" y2="11.1901652" id="Path-8" stroke="#000066"></line>
                    <mask id="mask-2" fill="white">
                        <use xlink:href="#path-1"></use>
                    </mask>
                    <use id="Clip-2" fill="#000066" xlink:href="#path-1"></use>
                    <path d="M40,16.4705882 L49.4117647,23.5634217 L40,30.5882353 L40,27.4509804 L36.0784314,27.4509804 L36.0784314,19.6078431 L40,19.6078431 L40,16.4705882 Z" id="Combined-Shape" fill="#000066"></path>
                </g>
            </g>
        </g>
    </g>
</svg>