<?xml version="1.0" encoding="UTF-8"?>
<svg width="26px" height="22px" viewBox="0 0 26 22" version="1.1" xmlns="http://www.w3.org/2000/svg" xmlns:xlink="http://www.w3.org/1999/xlink">
    <title>C6D37DA4-A603-4B8C-B847-0E2040C76267</title>
    <defs>
        <path d="M24.05,0.58984375 L11.05,0.58984375 C9.97303125,0.58984375 9.1,1.46372757 9.1,2.54174805 L9.1,4.49365234 L7.30770625,4.49365234 C6.79053513,4.49365505 6.29454698,4.6993033 5.92885312,5.06535698 L1.87114687,9.12702583 C1.50545032,9.49307681 1.3000027,9.98954932 1.3,10.5072255 L1.3,14.9038086 L0.975,14.9038086 C0.436515625,14.9038086 0,15.3407505 0,15.8797607 L0,16.5303955 C0,17.0694057 0.436515625,17.5063477 0.975,17.5063477 L2.6,17.5063477 C2.6,19.6623479 4.34610312,21.4101562 6.5,21.4101562 C8.65389687,21.4101562 10.4,19.6623479 10.4,17.5063477 L15.6,17.5063477 C15.6,19.6623479 17.3461031,21.4101562 19.5,21.4101562 C21.6538969,21.4101562 23.4,19.6623479 23.4,17.5063477 L25.025,17.5063477 C25.5634844,17.5063477 26,17.0694057 26,16.5303955 L26,2.54174805 C26,1.46372757 25.1269687,0.58984375 24.05,0.58984375 Z M6.5,19.458252 C5.42477813,19.458252 4.55,18.5826196 4.55,17.5063477 C4.55,16.4300758 5.42477813,15.5544434 6.5,15.5544434 C7.57522188,15.5544434 8.45,16.4300758 8.45,17.5063477 C8.45,18.5826196 7.57522188,19.458252 6.5,19.458252 Z M9.1,11 L3.25,11 L3.25,10.5072255 L7.30770625,6.44555664 L9.1,6.44555664 L9.1,11 Z M19.5,19.458252 C18.4247781,19.458252 17.55,18.5826196 17.55,17.5063477 C17.55,16.4300758 18.4247781,15.5544434 19.5,15.5544434 C20.5752219,15.5544434 21.45,16.4300758 21.45,17.5063477 C21.45,18.5826196 20.5752219,19.458252 19.5,19.458252 Z" id="path-1"></path>
    </defs>
    <g id="Shipper-app" stroke="none" stroke-width="1" fill="none" fill-rule="evenodd">
        <g id="trip_where?" transform="translate(-294.000000, -123.000000)">
            <g id="trip_progress" transform="translate(0.000000, 66.000000)">
                <g id="Group-2" transform="translate(25.000000, 55.000000)">
                    <g id="Group" transform="translate(18.000000, 0.000000)">
                        <g id="Solid/truck-Copy-3" transform="translate(264.000000, 13.000000) scale(-1, 1) translate(-264.000000, -13.000000) translate(251.000000, 2.000000)">
                            <mask id="mask-2" fill="white">
                                <use xlink:href="#path-1"></use>
                            </mask>
                            <use id="Mask" fill="#000000" fill-rule="nonzero" xlink:href="#path-1"></use>
                            <g id="Color" mask="url(#mask-2)" fill="#C1C7D0">
                                <g transform="translate(0.000000, -2.000000)" id="Turquoise">
                                    <rect x="0" y="0" width="26" height="26"></rect>
                                </g>
                            </g>
                        </g>
                    </g>
                </g>
            </g>
        </g>
    </g>
</svg>