<?xml version="1.0" encoding="UTF-8"?>
<svg width="16px" height="14px" viewBox="0 0 16 14" version="1.1" xmlns="http://www.w3.org/2000/svg" xmlns:xlink="http://www.w3.org/1999/xlink">
    <title>4009D204-955B-4619-B9F5-A0CB973B0594</title>
    <defs>
        <path d="M0.146934928,2.64645313 L2.64643493,0.146390626 C2.84168493,-0.0488281241 3.15840368,-0.0487656241 3.35352868,0.146390626 L5.85293493,2.64645313 C6.16762243,2.96114063 5.94352868,3.50001563 5.49937243,3.50001563 L4,3.50001563 L4,13.5000156 C4,13.7761719 3.77615368,14.0000156 3.5,14.0000156 L2.5,14.0000156 C2.22384118,14.0000156 2,13.7761719 2,13.5000156 L2,3.50001563 L0.500497428,3.50001563 C0.0554661777,3.50001563 -0.167096322,2.96051563 0.146934928,2.64645313 Z M7.49999743,2.00001563 L15.4999974,2.00001563 C15.7761537,2.00001563 15.9999974,1.77617188 15.9999974,1.50001563 L15.9999974,0.500015626 C15.9999974,0.223859376 15.7761537,1.56259381e-05 15.4999974,1.56259381e-05 L7.49999743,1.56259381e-05 C7.22384118,1.56259381e-05 6.99999743,0.223859376 6.99999743,0.500015626 L6.99999743,1.50001563 C6.99999743,1.77617188 7.22384118,2.00001563 7.49999743,2.00001563 Z M6.99999743,5.50001563 L6.99999743,4.50001563 C6.99999743,4.22385938 7.22384118,4.00001563 7.49999743,4.00001563 L13.4999974,4.00001563 C13.7761537,4.00001563 13.9999974,4.22385938 13.9999974,4.50001563 L13.9999974,5.50001563 C13.9999974,5.77617188 13.7761537,6.00001563 13.4999974,6.00001563 L7.49999743,6.00001563 C7.22384118,6.00001563 6.99999743,5.77617188 6.99999743,5.50001563 Z M6.99999743,13.5000156 L6.99999743,12.5000156 C6.99999743,12.2238594 7.22384118,12.0000156 7.49999743,12.0000156 L9.49999743,12.0000156 C9.77615368,12.0000156 9.99999743,12.2238594 9.99999743,12.5000156 L9.99999743,13.5000156 C9.99999743,13.7761719 9.77615368,14.0000156 9.49999743,14.0000156 L7.49999743,14.0000156 C7.22384118,14.0000156 6.99999743,13.7761719 6.99999743,13.5000156 Z M6.99999743,9.50001563 L6.99999743,8.50001563 C6.99999743,8.22385938 7.22384118,8.00001563 7.49999743,8.00001563 L11.4999974,8.00001563 C11.7761537,8.00001563 11.9999974,8.22385938 11.9999974,8.50001563 L11.9999974,9.50001563 C11.9999974,9.77617188 11.7761537,10.0000156 11.4999974,10.0000156 L7.49999743,10.0000156 C7.22384118,10.0000156 6.99999743,9.77617188 6.99999743,9.50001563 Z" id="path-1"></path>
    </defs>
    <g id="LSP-app" stroke="none" stroke-width="1" fill="none" fill-rule="evenodd">
        <g id="in_transit_upcoming" transform="translate(-320.000000, -136.000000)">
            <g id="sort_filter" transform="translate(260.000000, 133.000000)">
                <g id="Solid/sort-amount-down" transform="translate(60.000000, 3.000000)">
                    <mask id="mask-2" fill="white">
                        <use xlink:href="#path-1"></use>
                    </mask>
                    <use id="Mask" fill="#000000" fill-rule="nonzero" xlink:href="#path-1"></use>
                    <g id="Color" mask="url(#mask-2)" fill="#7A869A">
                        <g transform="translate(0.000000, -1.000000)" id="Black">
                            <rect x="0" y="0" width="16" height="16"></rect>
                        </g>
                    </g>
                </g>
            </g>
        </g>
    </g>
</svg>