<?xml version="1.0" encoding="UTF-8"?>
<svg width="72px" height="24px" viewBox="0 0 72 24" version="1.1" xmlns="http://www.w3.org/2000/svg" xmlns:xlink="http://www.w3.org/1999/xlink">
    <title>9E60B18C-FCBA-477D-B6DB-AE61FEA11BF9</title>
    <defs>
        <path d="M6,0 L1.99113047,0 C0.891625421,0 0,0.928896811 0,2.07491582 L0,5 L6,5 L6,0" id="path-1"></path>
    </defs>
    <g id="UI" stroke="none" stroke-width="1" fill="none" fill-rule="evenodd">
        <g id="trip_how?" transform="translate(-249.000000, -369.000000)">
            <g id="Group" transform="translate(20.000000, 220.000000)">
                <g transform="translate(229.000000, 149.000000)">
                    <polygon id="Fill-272" fill="#000066" points="53 19 61 19 61 17 53 17"></polygon>
                    <polygon id="Fill-273" fill="#000066" points="58 19 61 19 61 11 58 11"></polygon>
                    <polygon id="Fill-274" fill="#0E1011" points="2 20 13 20 13 15 2 15"></polygon>
                    <polygon id="Fill-275" fill="#0E1011" points="22 20 34 20 34 15 22 15"></polygon>
                    <polygon id="Fill-276" fill="#0E1011" points="39 20 54 20 54 15 39 15"></polygon>
                    <polygon id="Fill-277" fill="#0E1011" points="11 21 22 21 22 16 11 16"></polygon>
                    <polyline id="Fill-278" fill="#3399FF" points="67 5 59 5 59 0 67 5"></polyline>
                    <path d="M61,21 C61,21 65.6437192,19.5944878 68,21 C68,21 64.3304154,9.75 61,21" id="Fill-279" fill="#181B1A"></path>
                    <path d="M68.9709011,4 L59,4 L59,21 L60.8474141,21 C60.8393447,20.9149399 60.8349431,20.8289187 60.8349431,20.7419364 C60.8349431,19.1736113 62.1287443,17.9022756 63.7245385,17.9022756 C65.3208216,17.9022756 66.6146228,19.1736113 66.6146228,20.7419364 C66.6146228,20.8289187 66.6097322,20.9149399 66.6021519,21 L71,21 L71,6.04 L68.9709011,4" id="Fill-280" fill="#3399FF"></path>
                    <path d="M64,18 C62.3431513,18 61,19.3431513 61,21 C61,21.0920789 61.0048613,21.1827281 61.0128682,21.2728053 C61.1507006,22.8015442 62.4352302,24 64,24 C65.5650558,24 66.8492994,22.8015442 66.9874178,21.2728053 C66.9954246,21.1827281 67,21.0920789 67,21 C67,19.3431513 65.6568487,18 64,18" id="Fill-281" fill="#0E1011"></path>
                    <path d="M63.999668,19 C62.8952697,19 62,19.8952697 62,21 C62,21.0614108 62.0033195,21.1218257 62.0082988,21.1819087 C62.1005809,22.2009959 62.9566805,23 63.999668,23 C65.0429876,23 65.8990871,22.2009959 65.9910373,21.1819087 C65.9966805,21.1218257 66,21.0614108 66,21 C66,19.8952697 65.1040664,19 63.999668,19" id="Fill-282" fill="#EFF0F2"></path>
                    <path d="M63.9998708,20 C63.4478615,20 63,20.4478036 63,21 C63,21.0307494 63.0015506,21.0609819 63.0043933,21.0909561 C63.0501357,21.6005168 63.4783564,22 63.9998708,22 C64.5216436,22 64.9496059,21.6005168 64.9958651,21.0909561 C64.9984494,21.0609819 65,21.0307494 65,21 C65,20.4478036 64.552397,20 63.9998708,20" id="Fill-283" fill="#CCCEC8"></path>
                    <path d="M70,7 L65.9911305,7 C64.8916254,7 64,7.92889681 64,9.07491582 L64,12 L70,12 L70,7" id="Fill-284" fill="#E0F4FF"></path>
                    <g id="Group-292" transform="translate(64.000000, 7.000000)">
                        <mask id="mask-2" fill="white">
                            <use xlink:href="#path-1"></use>
                        </mask>
                        <g id="Clip-286"></g>
                        <polyline id="Fill-285" fill="#FCFDFD" mask="url(#mask-2)" points="4.12167027 11 3 10.2567323 9.87832973 -1 11 -0.256732271 4.12167027 11"></polyline>
                        <polyline id="Fill-287" fill="#FCFDFD" mask="url(#mask-2)" points="-3.87832973 5 -5 4.25649783 1.87832973 -7 3 -6.25649783 -3.87832973 5"></polyline>
                        <polyline id="Fill-288" fill="#FCFDFD" mask="url(#mask-2)" points="-3.45944891 6 -4 5.68634471 3.45944891 -5 4 -4.68634471 -3.45944891 6"></polyline>
                        <polyline id="Fill-289" fill="#FCFDFD" mask="url(#mask-2)" points="0.472982205 8 0 7.68657521 6.52701779 -3 7 -2.68633795 0.472982205 8"></polyline>
                        <polyline id="Fill-290" fill="#FCFDFD" mask="url(#mask-2)" points="-0.937072125 6 -1 5.95960713 5.93707213 -5 6 -4.95985046 -0.937072125 6"></polyline>
                        <polyline id="Fill-291" fill="#FCFDFD" mask="url(#mask-2)" points="1.07164097 8 1 7.9562005 8.92808243 -4 9 -3.95593505 1.07164097 8"></polyline>
                    </g>
                    <path d="M64,12 L64,15.4100382 C64,16.2881586 64.7709364,17 65.721956,17 L70,17 L70,12 L64,12" id="Fill-293" fill-opacity="0.289226399" fill="#000066"></path>
                    <path d="M65.7188249,13 L65.2811751,13 C65.1258993,13 65,12.5525333 65,12 L66,12 C66,12.5525333 65.8741007,13 65.7188249,13" id="Fill-294" fill="#FFCC00"></path>
                    <path d="M71.4955969,19 L71.5044031,19 C71.776908,19 72,19.2765312 72,19.6143117 L72,21.3856883 C72,21.7234688 71.776908,22 71.5044031,22 L71.4955969,22 C71.223092,22 71,21.7234688 71,21.3856883 L71,19.6143117 C71,19.2765312 71.223092,19 71.4955969,19" id="Fill-295" fill="#FFCC00"></path>
                    <polygon id="Fill-297" fill="#000066" points="0 17 56 17 56 15 0 15"></polygon>
                    <path d="M49.000143,18 C47.3433732,18 46,19.3431513 46,21 C46,21.0920789 46.0048611,21.1827281 46.0128676,21.2728053 C46.1509794,22.8015442 47.4351618,24 49.000143,24 C50.5648382,24 51.8493066,22.8015442 51.9871324,21.2728053 C51.9951389,21.1827281 52,21.0920789 52,21 C52,19.3431513 50.6569127,18 49.000143,18" id="Fill-299" fill="#0E1011"></path>
                    <path d="M49.000166,19 C47.895676,19 47,19.8952697 47,21 C47,21.0614108 47.0029878,21.1218257 47.0086314,21.1819087 C47.1005893,22.2009959 47.9567599,23 49.000166,23 C50.0432401,23 50.8994107,22.2009959 50.9917006,21.1819087 C50.9966802,21.1218257 51,21.0614108 51,21 C51,19.8952697 50.104656,19 49.000166,19" id="Fill-300" fill="#EFF0F2"></path>
                    <path d="M49.0001292,20 C48.4478615,20 48,20.4478036 48,21 C48,21.0307494 48.0015506,21.0609819 48.0041349,21.0909561 C48.0503941,21.6005168 48.4783564,22 49.0001292,22 C49.5216436,22 49.9498643,21.6005168 49.9956067,21.0909561 C49.9984494,21.0609819 50,21.0307494 50,21 C50,20.4478036 49.5521385,20 49.0001292,20" id="Fill-301" fill="#CCCEC8"></path>
                    <path d="M44.000143,18 C42.3433732,18 41,19.3431513 41,21 C41,21.0920789 41.005147,21.1827281 41.0131535,21.2728053 C41.1509794,22.8015442 42.4354477,24 44.000143,24 C45.5648382,24 46.8490206,22.8015442 46.9871324,21.2728053 C46.9951389,21.1827281 47,21.0920789 47,21 C47,19.3431513 45.6569127,18 44.000143,18" id="Fill-302" fill="#0E1011"></path>
                    <path d="M44,19 C42.8952697,19 42,19.8952697 42,21 C42,21.0614108 42.0033195,21.1218257 42.0086307,21.1819087 C42.1005809,22.2009959 42.9566805,23 44,23 C45.0429876,23 45.8994191,22.2009959 45.9913693,21.1819087 C45.9966805,21.1218257 46,21.0614108 46,21 C46,19.8952697 45.1047303,19 44,19" id="Fill-303" fill="#EFF0F2"></path>
                    <path d="M44,20 C43.4478036,20 43,20.4478036 43,21 C43,21.0307494 43.0015504,21.0609819 43.0043928,21.0909561 C43.0503876,21.6005168 43.4782946,22 44,22 C44.521447,22 44.9496124,21.6005168 44.9956072,21.0909561 C44.9981912,21.0609819 45,21.0307494 45,21 C45,20.4478036 44.5521964,20 44,20" id="Fill-304" fill="#CCCEC8"></path>
                    <path d="M21.999857,18 C20.3430873,18 19,19.3431513 19,21 C19,21.0920789 19.0048611,21.1827281 19.0128676,21.2728053 C19.1506934,22.8015442 20.4351618,24 21.999857,24 C23.5648382,24 24.8490206,22.8015442 24.9871324,21.2728053 C24.9951389,21.1827281 25,21.0920789 25,21 C25,19.3431513 23.6566268,18 21.999857,18" id="Fill-305" fill="#0E1011"></path>
                    <path d="M21.999668,19 C20.8952697,19 20,19.8952697 20,21 C20,21.0614108 20.0033195,21.1218257 20.0082988,21.1819087 C20.1005809,22.2009959 20.9566805,23 21.999668,23 C23.0429876,23 23.8994191,22.2009959 23.9910373,21.1819087 C23.9966805,21.1218257 24,21.0614108 24,21 C24,19.8952697 23.1040664,19 21.999668,19" id="Fill-306" fill="#EFF0F2"></path>
                    <path d="M21.9998708,20 C21.4478615,20 21,20.4478036 21,21 C21,21.0307494 21.0015506,21.0609819 21.0043933,21.0909561 C21.0503941,21.6005168 21.4783564,22 21.9998708,22 C22.5216436,22 22.9496059,21.6005168 22.9958651,21.0909561 C22.9984494,21.0609819 23,21.0307494 23,21 C23,20.4478036 22.552397,20 21.9998708,20" id="Fill-307" fill="#CCCEC8"></path>
                    <path d="M17.000143,18 C15.3429293,18 14,19.3431513 14,21 C14,21.0920789 14.0048615,21.1827281 14.0128688,21.2728053 C14.1507078,22.8015442 15.4352986,24 17.000143,24 C18.5649874,24 19.8492922,22.8015442 19.9874172,21.2728053 C19.9954244,21.1827281 20,21.0920789 20,21 C20,19.3431513 18.6570707,18 17.000143,18" id="Fill-308" fill="#0E1011"></path>
                    <path d="M17,19 C15.8952697,19 15,19.8952697 15,21 C15,21.0614108 15.0033195,21.1218257 15.0086307,21.1819087 C15.1005809,22.2009959 15.9566805,23 17,23 C18.0433195,23 18.8994191,22.2009959 18.9910373,21.1819087 C18.9966805,21.1218257 19,21.0614108 19,21 C19,19.8952697 18.1043983,19 17,19" id="Fill-309" fill="#EFF0F2"></path>
                    <path d="M17.0001292,20 C16.4478615,20 16,20.4478036 16,21 C16,21.0307494 16.0015506,21.0609819 16.0043933,21.0909561 C16.0501357,21.6005168 16.4786148,22 17.0001292,22 C17.5216436,22 17.9498643,21.6005168 17.9958651,21.0909561 C17.9984494,21.0609819 18,21.0307494 18,21 C18,20.4478036 17.552397,20 17.0001292,20" id="Fill-310" fill="#CCCEC8"></path>
                    <path d="M12.000143,18 C10.3433732,18 9,19.3431513 9,21 C9,21.0920789 9.00486108,21.1827281 9.01286756,21.2728053 C9.15097936,22.8015442 10.4351618,24 12.000143,24 C13.5648382,24 14.8490206,22.8015442 14.9871324,21.2728053 C14.9951389,21.1827281 15,21.0920789 15,21 C15,19.3431513 13.6566268,18 12.000143,18" id="Fill-311" fill="#0E1011"></path>
                    <path d="M12.000166,19 C10.895344,19 10,19.8952697 10,21 C10,21.0614108 10.0029878,21.1218257 10.0082994,21.1819087 C10.1005893,22.2009959 10.9567599,23 12.000166,23 C13.0432401,23 13.8994107,22.2009959 13.9917006,21.1819087 C13.9966802,21.1218257 14,21.0614108 14,21 C14,19.8952697 13.104656,19 12.000166,19" id="Fill-312" fill="#EFF0F2"></path>
                    <path d="M12.0002584,20 C11.448062,20 11,20.4478036 11,21 C11,21.0307494 11.0018088,21.0609819 11.0046512,21.0909561 C11.050646,21.6005168 11.478553,22 12.0002584,22 C12.5217054,22 12.9496124,21.6005168 12.9956072,21.0909561 C12.9984496,21.0609819 13,21.0307494 13,21 C13,20.4478036 12.5521964,20 12.0002584,20" id="Fill-313" fill="#CCCEC8"></path>
                    <path d="M6.99985703,18 C5.34337321,18 4,19.3431513 4,21 C4,21.0920789 4.00514702,21.1827281 4.01315351,21.2728053 C4.15097936,22.8015442 5.43544774,24 6.99985703,24 C8.5648382,24 9.84902064,22.8015442 9.98713244,21.2728053 C9.99513892,21.1827281 10,21.0920789 10,21 C10,19.3431513 8.65662679,18 6.99985703,18" id="Fill-314" fill="#0E1011"></path>
                    <path d="M6.99966805,19 C5.89526971,19 5,19.8952697 5,21 C5,21.0614108 5.0033195,21.1218257 5.00829876,21.1819087 C5.10058091,22.2009959 5.9566805,23 6.99966805,23 C8.04298755,23 8.89941909,22.2009959 8.99103734,21.1819087 C8.9966805,21.1218257 9,21.0614108 9,21 C9,19.8952697 8.10439834,19 6.99966805,19" id="Fill-315" fill="#EFF0F2"></path>
                    <path d="M6.99987078,20 C6.44786148,20 6,20.4478036 6,21 C6,21.0307494 6.00155059,21.0609819 6.00439333,21.0909561 C6.05039411,21.6005168 6.47835638,22 6.99987078,22 C7.52164362,22 7.94986432,21.6005168 7.9958651,21.0909561 C7.99844941,21.0609819 8,21.0307494 8,21 C8,20.4478036 7.55239695,20 6.99987078,20" id="Fill-316" fill="#CCCEC8"></path>
                    <polygon id="Fill-318" fill="#EFF0F2" points="52 23 56 23 56 19 52 19"></polygon>
                    <path d="M70.6118326,14 L70.3881674,14 C70.1753247,14 70,13.9396471 70,13.865827 L70,10.134173 C70,10.0606023 70.1753247,10 70.3881674,10 L70.6118326,10 C70.8253968,10 71,10.0606023 71,10.134173 L71,13.865827 C71,13.9396471 70.8253968,14 70.6118326,14" id="Fill-320" fill="#000066"></path>
                    <path d="M70.5005,15 L70.5005,15 C70.3095,15 70.1535,14.9595803 70.1535,14.910092 L70.1535,9.08990802 C70.1535,9.04041974 70.3095,9 70.5005,9 C70.6915,9 70.8465,9.04041974 70.8465,9.08990802 L70.8465,14.910092 C70.8465,14.9595803 70.6915,15 70.5005,15" id="Fill-321" fill="#181B1A"></path>
                </g>
            </g>
        </g>
    </g>
</svg>