<?xml version="1.0" encoding="UTF-8"?>
<svg width="28px" height="28px" viewBox="0 0 28 28" version="1.1" xmlns="http://www.w3.org/2000/svg" xmlns:xlink="http://www.w3.org/1999/xlink">
    <title>9C9A2CD2-A3DE-4EF0-A2C4-9B1ECCFB4CB8</title>
    <g id="UI" stroke="none" stroke-width="1" fill="none" fill-rule="evenodd">
        <g id="shipper_home" transform="translate(-127.000000, -255.000000)" fill="#000066" fill-rule="nonzero">
            <g id="Group-Copy-4" transform="translate(106.000000, 241.000000)">
                <path d="M45.8756197,38.8888889 C45.885498,38.8888889 45.8888889,17.1034722 45.8888889,17.1034722 C45.8888889,17.1119123 33.4577136,17.1111111 33.4577136,17.1111111 C33.4478353,17.1111111 33.4444444,38.8888889 33.4444444,38.8888889 L45.8756197,38.8888889 Z M30.3333333,17.1034722 C30.3333333,15.3894718 31.7363672,14 33.4577136,14 L45.8756197,14 C47.6011673,14 49,15.3885244 49,17.1034722 L49,38.8965278 C49,40.6105282 47.5969661,42 45.8756197,42 L30.3333333,42 L30.3333333,17.1034722 Z M28.7777778,18.6666667 L24.1243803,18.6666667 C22.4030339,18.6666667 21,20.1634225 21,22.0097644 L21,38.6569022 C21,40.5048998 22.3988327,42 24.1243803,42 L32.6600321,42 L28.7777778,42 L28.7777778,38.6627923 C26.2639254,38.6611332 24.1111111,38.6590774 24.1111111,38.6569022 C24.1111111,38.6569022 24.1182306,22 24.1243803,22 C24.1243803,22 26.2696237,22.000783 28.7777778,22.0020732 L28.7777778,18.6666667 L28.7777778,18.6666667 Z M35,20.2222222 L38.1111111,20.2222222 L38.1111111,23.3333333 L35,23.3333333 L35,20.2222222 Z M25.6666667,24.8888889 L28.7777778,24.8888889 L28.7777778,28 L25.6666667,28 L25.6666667,24.8888889 Z M25.6666667,29.5555556 L28.7777778,29.5555556 L28.7777778,32.6666667 L25.6666667,32.6666667 L25.6666667,29.5555556 Z M35,24.8888889 L38.1111111,24.8888889 L38.1111111,28 L35,28 L35,24.8888889 Z M35,29.5555556 L38.1111111,29.5555556 L38.1111111,32.6666667 L35,32.6666667 L35,29.5555556 Z M38.1111111,34.2222222 L41.2222222,34.2222222 L41.2222222,38.8888889 L38.1111111,38.8888889 L38.1111111,34.2222222 Z M41.2222222,20.2222222 L44.3333333,20.2222222 L44.3333333,23.3333333 L41.2222222,23.3333333 L41.2222222,20.2222222 Z M41.2222222,24.8888889 L44.3333333,24.8888889 L44.3333333,28 L41.2222222,28 L41.2222222,24.8888889 Z M41.2222222,29.5555556 L44.3333333,29.5555556 L44.3333333,32.6666667 L41.2222222,32.6666667 L41.2222222,29.5555556 Z" id="Rectangle-3"></path>
            </g>
        </g>
    </g>
</svg>